<?xml version="1.0" encoding="utf-8"?>
<!-- Generator: Adobe Illustrator 21.0.0, SVG Export Plug-In . SVG Version: 6.00 Build 0)  -->
<svg version="1.1" id="Layer_1" xmlns="http://www.w3.org/2000/svg" xmlns:xlink="http://www.w3.org/1999/xlink" x="0px" y="0px"
	 viewBox="0 0 600 265.5" style="enable-background:new 0 0 600 265.5;" xml:space="preserve">
<style type="text/css">
	.st0{fill:#FFFFFF;}
</style>
<g>
	<g>
		<path class="st0" d="M415,0l-5.6,17.6c-9.7,0-17.2,1.1-22.4,3.2c-5.2,2.1-9.1,5.6-11.6,10.4s-5.3,12.9-8.3,24.2L328.2,207
			c-2,8.1-3.1,13.9-3.1,17.6c0,6.9,2.8,11.6,8.3,14c5.6,2.4,13.5,3.6,23.9,3.6l-5.6,17.6H230.4l5.6-17.6c9.5,0,16.6-0.7,21.6-2.2
			c4.9-1.5,8.6-4.1,11-8c2.4-3.8,4.8-10.2,7.1-19l45.4-179.4L167.5,259.9h-24.7L128.4,34.1L64,203.8c-3.7,9.6-5.6,16-5.6,19.2
			c0,7.3,2.9,12,8.7,14.3c5.8,2.2,13.9,3.9,24.2,5.1l-5.6,17.6H0l5.6-17.6c8.6-1.2,16.4-6.1,23.5-14.8c7.1-8.7,12.9-18.8,17.3-30.5
			l56.9-148.8c1.5-4.1,2.3-7.9,2.3-11.5c0-6.1-2.3-10.9-6.9-14.2c-4.6-3.3-11.2-5-19.7-5h-4.4L79.7,0h93.7l13.8,198.2L322.6,0H415z"
			/>
		<path class="st0" d="M600,211.6c-5.2,12.7-12.8,24.8-22.7,36.4c-9.9,11.6-23.3,17.4-40.2,17.4c-10.5,0-17.9-2.8-22.1-8.4
			c-4.3-5.6-6.4-12.1-6.4-19.6c0-3.2,0.6-7.4,1.8-12.7c1.2-5.2,2.8-11.1,4.7-17.4l6.3-21.7c-13.7,22.2-27.8,41.1-42.3,56.5
			c-14.5,15.5-30.6,23.2-48.4,23.2c-9.1,0-16-2.6-20.9-7.9c-4.9-5.2-7.3-11.4-7.3-18.6c0-6.8,1.8-15.9,5.4-27.4l19.4-63.3
			c2.6-7.7,3.8-13.2,3.8-16.5c0-1.5-0.5-3.1-1.4-4.7c-1-1.6-2.6-2.4-4.9-2.4c-7.5,0-17.1,8.9-28.6,26.8h-17.6
			c8.7-13.9,18.4-26.1,29-36.6c10.7-10.5,24-15.7,40-15.7c7.3,0,14,1.9,20,5.8c6.1,3.9,9.1,11.2,9.1,21.8c0,6.3-0.8,11.9-2.5,16.9
			l-15.7,51c-3.6,11.8-5.4,20.3-5.4,25.5c0,2.8,0.9,5.5,2.6,8.1c1.7,2.6,4.1,3.8,7.2,3.8c6,0,13.4-4.6,22.2-13.7
			c8.8-9.1,18.4-23.4,28.8-42.7c10.4-19.4,20.6-43.6,30.6-72.7h45.6l-35.8,116.9c-2.3,8.3-3.5,13.3-3.5,15c0,1.5,0.6,3.1,1.8,4.7
			c1.2,1.6,2.5,2.4,3.9,2.4c4.7,0,9.3-3.2,13.6-9.6c4.3-6.4,8.2-13.3,11.7-20.7H600z"/>
	</g>
	<polygon class="st0" points="409.8,55.2 596.8,63.2 409.8,71.2 	"/>
</g>
</svg>
